<?xml version="1.0" encoding="UTF-8" standalone="no"?>
<!-- Created with Inkscape (http://www.inkscape.org/) -->

<svg
   xmlns:dc="http://purl.org/dc/elements/1.1/"
   xmlns:cc="http://creativecommons.org/ns#"
   xmlns:rdf="http://www.w3.org/1999/02/22-rdf-syntax-ns#"
   xmlns:svg="http://www.w3.org/2000/svg"
   xmlns="http://www.w3.org/2000/svg"
   xmlns:sodipodi="http://sodipodi.sourceforge.net/DTD/sodipodi-0.dtd"
   xmlns:inkscape="http://www.inkscape.org/namespaces/inkscape"
   width="32.931686mm"
   height="33.514362mm"
   viewBox="0 0 32.931686 33.514362"
   version="1.1"
   id="svg574"
   inkscape:version="0.92.5 (0.92.5+68)"
   sodipodi:docname="ico-risorsa.svg">
  <defs
     id="defs568" />
  <sodipodi:namedview
     id="base"
     pagecolor="#ffffff"
     bordercolor="#666666"
     borderopacity="1.0"
     inkscape:pageopacity="0.0"
     inkscape:pageshadow="2"
     inkscape:zoom="0.35"
     inkscape:cx="353.66167"
     inkscape:cy="251.90566"
     inkscape:document-units="mm"
     inkscape:current-layer="layer1"
     showgrid="false"
     fit-margin-top="0"
     fit-margin-left="0"
     fit-margin-right="0"
     fit-margin-bottom="0"
     inkscape:window-width="1920"
     inkscape:window-height="1053"
     inkscape:window-x="0"
     inkscape:window-y="0"
     inkscape:window-maximized="1" />
  <metadata
     id="metadata571">
    <rdf:RDF>
      <cc:Work
         rdf:about="">
        <dc:format>image/svg+xml</dc:format>
        <dc:type
           rdf:resource="http://purl.org/dc/dcmitype/StillImage" />
        <dc:title></dc:title>
      </cc:Work>
    </rdf:RDF>
  </metadata>
  <g
     inkscape:label="Livello 1"
     inkscape:groupmode="layer"
     id="layer1"
     transform="translate(-12.260351,-181.96901)">
    <rect
       style="opacity:1;vector-effect:none;fill:#e3edfb;fill-opacity:1;stroke:none;stroke-width:0.08819813;stroke-linecap:butt;stroke-linejoin:miter;stroke-miterlimit:4;stroke-dasharray:none;stroke-dashoffset:0;stroke-opacity:1;paint-order:fill markers stroke"
       id="rect548"
       width="25.051977"
       height="25.350203"
       x="-65.135826"
       y="180.42206"
       transform="matrix(0.91244145,-0.40920728,0.3973626,0.91766168,0,0)" />
    <path
       style="fill:#1f80ff;fill-opacity:1;stroke-width:1"
       d="m 28.563356,187.17692 c -10.54617,0 -12.157534,0.008 -12.632006,0.43757 -0.495649,0.44853 -0.488216,1.69506 -0.488216,12.17771 0,6.16002 0.0891,11.6213 0.198034,11.7302 0.648756,0.23351 3.666306,0.37096 7.499117,0.32835 5.967002,-0.0663 7.051941,-0.63823 7.051941,-1.01013 0,-0.37108 -0.959589,-0.44584 -6.587677,-0.51223 l -6.587677,-0.0777 v -8.68189 -8.68152 h 11.574325 11.574708 l 0.08074,3.98164 c 0.06697,3.31032 0.153762,3.98162 0.514887,3.98162 0.663736,0 1.419053,-11.82963 0.766815,-12.82508 L 41.081246,187.343 Z m -11.546484,1.6564 H 28.599576 40.18228 v 1.44794 1.44793 H 28.599576 17.016872 v -1.44793 z"
       id="path507"
       inkscape:connector-curvature="0"
       sodipodi:nodetypes="ccsccscccccccscccccccccccc" />
    <path
       style="fill:#1f80ff;fill-opacity:1;stroke-width:1"
       d="m 23.966586,207.18817 c 0,-0.55882 0.193047,-0.57914 5.501812,-0.57914 5.308764,0 5.501811,0.0204 5.501811,0.57914 0,0.55882 -0.193047,0.57913 -5.501811,0.57913 -5.308765,0 -5.501812,-0.0203 -5.501812,-0.57913 z"
       id="path386"
       inkscape:connector-curvature="0"
       sodipodi:nodetypes="sssss" />
    <path
       style="fill:#1f80ff;fill-opacity:1;stroke-width:1"
       d="m 23.966586,203.51252 c 0,-0.56234 0.193047,-0.57913 6.660084,-0.57913 6.467038,0 6.660084,0.0167 6.660084,0.57913 0,0.56235 -0.193046,0.57914 -6.660084,0.57914 -6.467037,0 -6.660084,-0.0167 -6.660084,-0.57914 z"
       id="path390"
       inkscape:connector-curvature="0"
       sodipodi:nodetypes="sssss" />
    <path
       style="fill:#1f80ff;fill-opacity:1;stroke-width:1"
       d="m 23.966586,200.22687 c 0,-0.56236 0.193047,-0.57914 6.660084,-0.57914 6.467038,0 6.660084,0.0167 6.660084,0.57914 0,0.56235 -0.193046,0.57914 -6.660084,0.57914 -6.467037,0 -6.660084,-0.0167 -6.660084,-0.57914 z"
       id="path394"
       inkscape:connector-curvature="0"
       sodipodi:nodetypes="sssss" />
    <path
       style="fill:#1f80ff;fill-opacity:1;stroke-width:1"
       d="m 23.615646,196.59026 c 0,-0.56235 0.193054,-0.57913 6.660084,-0.57913 6.467037,0 6.660084,0.0167 6.660084,0.57913 0,0.56236 -0.193047,0.57913 -6.660084,0.57913 -6.46703,0 -6.660084,-0.0167 -6.660084,-0.57913 z"
       id="path398"
       inkscape:connector-curvature="0" />
    <path
       style="fill:#1f80ff;fill-opacity:1;fill-rule:nonzero;stroke:none;stroke-width:0.03527781"
       d="m 20.224026,196.51104 c 0.287878,0.24537 0.578154,0.48729 0.871792,0.7258 0.272611,0.22139 0.700978,-0.0615 0.713434,-0.37595 0.0152,-0.38389 0.03042,-0.76778 0.04563,-1.1517 0.01537,-0.38845 0.0202,-0.78549 -0.06494,-1.16682 -0.06753,-0.30249 -0.5255,-0.0574 -0.588116,0.12781 -0.125941,0.37258 -0.155632,0.76742 -0.173567,1.15802 -0.0043,0.0943 -0.0087,0.18858 -0.01299,0.28288 -0.08021,-0.0576 -0.160092,-0.11568 -0.240675,-0.17284 -0.304157,-0.21587 -0.625683,-0.44722 -0.966333,-0.60138 -0.101429,-0.0459 -0.210853,-0.0131 -0.299989,0.0469 -0.07674,0.0517 -0.219569,0.20129 -0.13846,0.30483 0.239308,0.3055 0.559144,0.57087 0.854214,0.82239 z"
       id="path538"
       inkscape:connector-curvature="0" />
    <path
       inkscape:connector-curvature="0"
       id="path542"
       d="m 20.224026,200.19007 c 0.287878,0.24537 0.578154,0.48729 0.871792,0.7258 0.272611,0.22139 0.700978,-0.0615 0.713434,-0.37595 0.0152,-0.38389 0.03042,-0.76778 0.04563,-1.1517 0.01537,-0.38845 0.0202,-0.78549 -0.06494,-1.16682 -0.06753,-0.30249 -0.5255,-0.0574 -0.588116,0.12781 -0.125941,0.37258 -0.155632,0.76742 -0.173567,1.15802 -0.0043,0.0943 -0.0087,0.18858 -0.01299,0.28288 -0.08021,-0.0576 -0.160092,-0.11568 -0.240675,-0.17284 -0.304157,-0.21587 -0.625683,-0.44722 -0.966333,-0.60138 -0.101429,-0.0459 -0.210853,-0.0131 -0.299989,0.0469 -0.07674,0.0517 -0.219569,0.20129 -0.13846,0.30483 0.239308,0.30549 0.559144,0.57087 0.854214,0.82239 z"
       style="fill:#1f80ff;fill-opacity:1;fill-rule:nonzero;stroke:none;stroke-width:0.03527781" />
    <path
       style="fill:#1f80ff;fill-opacity:1;fill-rule:nonzero;stroke:none;stroke-width:0.03527781"
       d="m 20.224026,203.8691 c 0.287878,0.24537 0.578154,0.48729 0.871792,0.7258 0.272611,0.22139 0.700978,-0.0615 0.713434,-0.37595 0.0152,-0.38389 0.03042,-0.76778 0.04563,-1.1517 0.01537,-0.38845 0.0202,-0.78549 -0.06494,-1.16683 -0.06753,-0.30248 -0.5255,-0.0574 -0.588116,0.12782 -0.125941,0.37258 -0.155632,0.76742 -0.173567,1.15802 -0.0043,0.0943 -0.0087,0.18858 -0.01299,0.28288 -0.08021,-0.0576 -0.160092,-0.11568 -0.240675,-0.17284 -0.304157,-0.21587 -0.625683,-0.44722 -0.966333,-0.60138 -0.101429,-0.0459 -0.210853,-0.0131 -0.299989,0.0469 -0.07674,0.0517 -0.219569,0.20129 -0.13846,0.30483 0.239308,0.30549 0.559144,0.57087 0.854214,0.82239 z"
       id="path544"
       inkscape:connector-curvature="0" />
    <path
       inkscape:connector-curvature="0"
       id="path546"
       d="m 20.224026,207.63322 c 0.287878,0.24538 0.578154,0.48729 0.871792,0.7258 0.272611,0.22139 0.700978,-0.0615 0.713434,-0.37594 0.0152,-0.38389 0.03042,-0.76778 0.04563,-1.1517 0.01537,-0.38845 0.0202,-0.7855 -0.06494,-1.16683 -0.06753,-0.30248 -0.5255,-0.0574 -0.588116,0.12781 -0.125941,0.37259 -0.155632,0.76743 -0.173567,1.15802 -0.0043,0.0943 -0.0087,0.18858 -0.01299,0.28289 -0.08021,-0.0576 -0.160092,-0.11568 -0.240675,-0.17284 -0.304157,-0.21587 -0.625683,-0.44722 -0.966333,-0.60138 -0.101429,-0.0459 -0.210853,-0.0131 -0.299989,0.0469 -0.07674,0.0517 -0.219569,0.20129 -0.13846,0.30483 0.239308,0.30549 0.559144,0.57087 0.854214,0.82239 z"
       style="fill:#1f80ff;fill-opacity:1;fill-rule:nonzero;stroke:none;stroke-width:0.03527781" />
  </g>
</svg>
