<?xml version="1.0" encoding="UTF-8" standalone="no"?>
<!-- Created with Inkscape (http://www.inkscape.org/) -->

<svg
   xmlns:dc="http://purl.org/dc/elements/1.1/"
   xmlns:cc="http://creativecommons.org/ns#"
   xmlns:rdf="http://www.w3.org/1999/02/22-rdf-syntax-ns#"
   xmlns:svg="http://www.w3.org/2000/svg"
   xmlns="http://www.w3.org/2000/svg"
   xmlns:sodipodi="http://sodipodi.sourceforge.net/DTD/sodipodi-0.dtd"
   xmlns:inkscape="http://www.inkscape.org/namespaces/inkscape"
   width="32.931686mm"
   height="33.514362mm"
   viewBox="0 0 32.931686 33.514362"
   version="1.1"
   id="svg1532"
   inkscape:version="0.92.5 (0.92.5+68)"
   sodipodi:docname="ico-disponibilita.svg">
  <defs
     id="defs1526" />
  <sodipodi:namedview
     id="base"
     pagecolor="#ffffff"
     bordercolor="#666666"
     borderopacity="1.0"
     inkscape:pageopacity="0.0"
     inkscape:pageshadow="2"
     inkscape:zoom="0.35"
     inkscape:cx="59.375968"
     inkscape:cy="-433.80862"
     inkscape:document-units="mm"
     inkscape:current-layer="layer1"
     showgrid="false"
     fit-margin-top="0"
     fit-margin-left="0"
     fit-margin-right="0"
     fit-margin-bottom="0"
     inkscape:window-width="1920"
     inkscape:window-height="1053"
     inkscape:window-x="0"
     inkscape:window-y="0"
     inkscape:window-maximized="1" />
  <metadata
     id="metadata1529">
    <rdf:RDF>
      <cc:Work
         rdf:about="">
        <dc:format>image/svg+xml</dc:format>
        <dc:type
           rdf:resource="http://purl.org/dc/dcmitype/StillImage" />
        <dc:title></dc:title>
      </cc:Work>
    </rdf:RDF>
  </metadata>
  <g
     inkscape:label="Livello 1"
     inkscape:groupmode="layer"
     id="layer1"
     transform="translate(-90.123442,-0.54044069)">
    <rect
       transform="matrix(0.91244145,-0.40920728,0.3973626,0.91766168,0,0)"
       y="46.730053"
       x="78.421104"
       height="25.350203"
       width="25.051977"
       id="rect1403-6"
       style="opacity:1;vector-effect:none;fill:#e3edfb;fill-opacity:1;stroke:none;stroke-width:0.08819813;stroke-linecap:butt;stroke-linejoin:miter;stroke-miterlimit:4;stroke-dasharray:none;stroke-dashoffset:0;stroke-opacity:1;paint-order:fill markers stroke" />
    <path
       style="fill:#1f80ff;fill-opacity:1;stroke-width:1"
       d="m 103.05659,20.275929 c -0.007,-0.60064 0.82309,-1.67501 1.13495,-1.95908 0.96399,-0.87809 1.71508,-1.32706 2.39644,-2.43102 0.28601,-1.93933 -0.0326,-2.74016 0.11745,-5.17308 0.0507,-0.8216904 -0.17598,-3.0536304 0.64727,-3.0536304 0.82325,0 1.0341,1.7647801 1.11706,2.5838404 0.2264,2.23528 0.52851,4.56518 0.52851,6.82089 -1.16539,1.07091 -2.95184,2.60157 -3.87779,2.99839 -0.49478,0.21204 -2.04967,1.36751 -2.06389,0.21369 z"
       id="path1083"
       inkscape:connector-curvature="0"
       sodipodi:nodetypes="sscssscss" />
    <g
       transform="matrix(0.10784408,0,0,-0.10077047,93.978672,29.695955)"
       inkscape:label="ink_ext_XXXXXX"
       id="g1093"
       style="fill:#1f80ff;fill-opacity:1;stroke-width:3.38404703">
      <g
         transform="scale(0.1)"
         id="g1095"
         style="fill:#1f80ff;fill-opacity:1;stroke-width:3.38404703">
        <path
           inkscape:connector-curvature="0"
           id="path1097"
           style="fill:#1f80ff;fill-opacity:1;fill-rule:nonzero;stroke:none;stroke-width:3.38404703"
           d="m 2298.9758,2015.1072 c -45.61,41.87 -129.62,-1.97 -164.38,-35.45 -23.363,-96.3496 -155.6163,-280.1706 -247.5864,-365.6806 -30.95,-30.02 -56.31,-84.03 -29,-124.55 33.1,-49.08 116.43,-36.22 156.26,-3.54 8.77,7.2 17.53,14.43 26.3,21.65 l 0.02,-0.02 0.15,0.15 c 112.83,92.82 17.2187,70.9148 131.2587,162.2548 50.94,-225.35 19.1309,-536.0866 -63.6591,-757.95564 C 2021.549,679.41576 1834.36,494.93 1633.19,371.34 c -43.16,-26.52 -85.65,-47.02 -143.92,-70.949 -61.09,-25.09 -118.72,-41.153 -183.62,-53.93 -126.27,-24.871 -259.43,-24.43 -384.837,4.949 -235.907,55.25 -414.497,215.172 -529.868,423.539 -162.664,293.77 -182.882,659.521 -120.07,983.281 68.125,351.13 284.406,720.07 665.363,784.7 36.852,6.25 74.502,29.01 92.752,62.53 15.8,29.01 -0.3,51.31 -32.478,48.19 C 724.48,2527.27 486.789,2374.75 310.52,2171.96 118.293,1950.81 29.9688,1645.74 5.69922,1359.25 -33.957,891.121 131.043,346.711 571.93,115.789 c 472.16,-247.301 1049.06,-72.4374 1416.85,278.789 371.7647,357.06445 432.5964,1086.6852 336.89,1421.932 -1.2,3.08 121.2839,-178.8881 208.4839,-237.1581 42.45,-28.36 168.75,55.49 130.71,102.74 -174.8704,153.39 -189.2824,176.6669 -365.8881,333.0153 z"
           sodipodi:nodetypes="ccccccccccccccccccccccccccc" />
      </g>
    </g>
  </g>
</svg>
