<?xml version="1.0" encoding="UTF-8" standalone="no"?>
<!-- Created with Inkscape (http://www.inkscape.org/) -->

<svg
   xmlns:dc="http://purl.org/dc/elements/1.1/"
   xmlns:cc="http://creativecommons.org/ns#"
   xmlns:rdf="http://www.w3.org/1999/02/22-rdf-syntax-ns#"
   xmlns:svg="http://www.w3.org/2000/svg"
   xmlns="http://www.w3.org/2000/svg"
   xmlns:sodipodi="http://sodipodi.sourceforge.net/DTD/sodipodi-0.dtd"
   xmlns:inkscape="http://www.inkscape.org/namespaces/inkscape"
   width="32.931686mm"
   height="33.514362mm"
   viewBox="0 0 32.931686 33.514362"
   version="1.1"
   id="svg677"
   inkscape:version="0.92.5 (0.92.5+68)"
   sodipodi:docname="ico-frazionamento.svg">
  <defs
     id="defs671" />
  <sodipodi:namedview
     id="base"
     pagecolor="#ffffff"
     bordercolor="#666666"
     borderopacity="1.0"
     inkscape:pageopacity="0.0"
     inkscape:pageshadow="2"
     inkscape:zoom="0.35"
     inkscape:cx="73.661694"
     inkscape:cy="-8.094368"
     inkscape:document-units="mm"
     inkscape:current-layer="layer1"
     showgrid="false"
     fit-margin-top="0"
     fit-margin-left="0"
     fit-margin-right="0"
     fit-margin-bottom="0"
     inkscape:window-width="1920"
     inkscape:window-height="1053"
     inkscape:window-x="0"
     inkscape:window-y="0"
     inkscape:window-maximized="1" />
  <metadata
     id="metadata674">
    <rdf:RDF>
      <cc:Work
         rdf:about="">
        <dc:format>image/svg+xml</dc:format>
        <dc:type
           rdf:resource="http://purl.org/dc/dcmitype/StillImage" />
        <dc:title></dc:title>
      </cc:Work>
    </rdf:RDF>
  </metadata>
  <g
     inkscape:label="Livello 1"
     inkscape:groupmode="layer"
     id="layer1"
     transform="translate(-86.343677,-113.17734)">
    <rect
       transform="matrix(0.91244145,-0.40920728,0.3973626,0.91766168,0,0)"
       y="147.9664"
       x="30.190828"
       height="25.350203"
       width="25.051977"
       id="rect1403-6-6"
       style="opacity:1;vector-effect:none;fill:#e3edfb;fill-opacity:1;stroke:none;stroke-width:0.08819813;stroke-linecap:butt;stroke-linejoin:miter;stroke-miterlimit:4;stroke-dasharray:none;stroke-dashoffset:0;stroke-opacity:1;paint-order:fill markers stroke" />
    <path
       style="fill:#ffffff;stroke:none;stroke-width:0.26458332px;stroke-linecap:butt;stroke-linejoin:miter;stroke-opacity:1"
       d="m 101.1501,130.18984 -0.0851,-8.68002 c 0,0 -6.297269,-0.72335 -7.403549,7.361 -1.10628,8.08434 5.0208,9.27571 6.510019,9.48846 0.38294,-1.36158 0.97863,-8.16944 0.97863,-8.16944 z"
       id="path658"
       inkscape:connector-curvature="0"
       sodipodi:nodetypes="ccsccc" />
    <path
       style="fill:#1f80ff;fill-opacity:1;stroke-width:1"
       d="m 97.309381,113.55288 c -1.74837,0.14782 -1.0917,2.39547 0,2.48906 0.58421,0.05 1.1832,0.0799 1.7884,0.0959 v 1.07256 c -6.95496,1.26832 -11.13153,7.17324 -11.20332,13.08446 -0.0696,5.73063 4.48951,12.25668 9.5726,12.89546 8.528869,1.07179 16.087309,-4.65782 16.023659,-13.714 -0.0268,-3.8143 -0.95837,-5.01982 -2.54305,-8.27509 0.25902,-0.34634 0.48306,-0.54878 0.65554,-0.75087 0.31502,0.23812 0.62854,0.4735 0.93064,0.70035 0.66215,0.49725 1.88145,-0.72522 1.11686,-1.499 -1.29257,-1.30807 -2.87097,-2.50953 -4.31321,-3.49394 -1.11961,-0.76418 -1.73209,0.91031 -1.11642,1.49945 0.34949,0.33443 0.71958,0.66309 1.09997,0.98589 -0.15042,0.19151 -0.30983,0.40565 -0.51909,0.64197 -1.94475,-1.14783 -4.25122,-1.98922 -6.27818,-2.25219 l 0.0425,-0.9479 c 0.39662,-0.0145 1.52003,-0.0286 1.90241,-0.0431 1.06896,-0.0405 1.38823,-2.32921 0,-2.48905 -1.17343,-0.13511 -1.84737,-0.18286 -3.50908,-0.17285 -1.661719,0.01 -2.524159,0.0777 -3.650279,0.17289 z m 13.944059,19.27051 c -3.9096,8.16461 -13.688709,10.81482 -18.927039,3.33728 -3.70951,-5.29521 -1.6957,-16.95958 9.112039,-17.35901 7.21189,-0.0164 11.71041,7.07758 9.815,14.02173 z M 100.93461,121.1535 c -0.7436,0.25482 -0.81527,1.38552 -0.53109,6.69734 -0.767619,0.81773 -1.604489,2.57077 -0.763539,3.40542 0.433189,0.42989 1.006909,0.6818 1.552399,0.6818 0.99973,0 1.72263,-1.22444 1.72263,-2.08115 0,-0.69703 -0.83102,-2.02508 -1.14397,-2.02508 -0.19275,-2.88831 0.29466,-6.5039 -0.83643,-6.67833 z"
       id="path1203"
       inkscape:connector-curvature="0"
       sodipodi:nodetypes="ccccsssccccsccccccccccsccccssccc" />
  </g>
</svg>
