<?xml version="1.0" encoding="UTF-8" standalone="no"?>
<svg
   xmlns:dc="http://purl.org/dc/elements/1.1/"
   xmlns:cc="http://creativecommons.org/ns#"
   xmlns:rdf="http://www.w3.org/1999/02/22-rdf-syntax-ns#"
   xmlns:svg="http://www.w3.org/2000/svg"
   xmlns="http://www.w3.org/2000/svg"
   xmlns:sodipodi="http://sodipodi.sourceforge.net/DTD/sodipodi-0.dtd"
   xmlns:inkscape="http://www.inkscape.org/namespaces/inkscape"
   id="svg433"
   version="1.1"
   viewBox="0 0 66.663093 43.471005"
   height="43.471004mm"
   width="66.663094mm"
   sodipodi:docname="ico-beacon.svg"
   inkscape:version="0.92.5 (0.92.5+68)">
  <sodipodi:namedview
     pagecolor="#ffffff"
     bordercolor="#666666"
     borderopacity="1"
     objecttolerance="10"
     gridtolerance="10"
     guidetolerance="10"
     inkscape:pageopacity="0"
     inkscape:pageshadow="2"
     inkscape:window-width="1349"
     inkscape:window-height="887"
     id="namedview17"
     showgrid="false"
     fit-margin-top="0"
     fit-margin-left="0"
     fit-margin-right="0"
     fit-margin-bottom="0"
     inkscape:zoom="1.7946653"
     inkscape:cx="130.20528"
     inkscape:cy="88.438924"
     inkscape:window-x="0"
     inkscape:window-y="0"
     inkscape:window-maximized="0"
     inkscape:current-layer="g326" />
  <defs
     id="defs427" />
  <metadata
     id="metadata430">
    <rdf:RDF>
      <cc:Work
         rdf:about="">
        <dc:format>image/svg+xml</dc:format>
        <dc:type
           rdf:resource="http://purl.org/dc/dcmitype/StillImage" />
        <dc:title />
      </cc:Work>
    </rdf:RDF>
  </metadata>
  <path
     style="fill:#e3edfb;fill-opacity:1;stroke-width:1"
     d="M 22.019745,4.1231612 C 9.6066347,0.16434231 8.0833111,-0.25418033 7.3718737,0.10020896 6.628695,0.47043276 6.3220006,1.3855586 2.5873729,14.385862 c -2.19460158,7.63949 -2.66663419,9.681133 -2.57721606,9.857082 0.0894293,0.175995 3.86615906,1.454104 8.39263236,2.840052 7.0469278,2.157672 8.2523928,2.442456 8.3849058,1.981202 0.132202,-0.460222 -0.970637,-0.913108 -7.571356,-3.108112 L 1.4901503,23.386859 3.3328068,16.972539 6.4257207,6.2059817 20.048995,10.550764 l 13.623711,4.344901 -1.323945,4.968062 c -1.100538,4.130505 -1.23754,4.995623 -0.812467,5.13119 0.781206,0.249138 5.033731,-13.959812 4.620681,-15.4391636 L 35.873861,8.5415491 Z M 7.8700317,1.1783448 21.503165,5.5262608 35.136265,9.8741886 34.620422,11.669851 34.104579,13.465561 20.471468,9.1176334 6.8383347,4.7697175 7.3541776,2.9740312 Z M 20.918648,15.057334 c -7.611851,-2.427595 -7.845059,-2.479087 -8.04541,-1.78168 -0.200362,0.697478 0.02099,0.790361 7.632807,3.217944 7.611851,2.427595 7.844892,2.479562 8.045242,1.782143 0.200373,-0.697467 -0.02077,-0.790812 -7.632639,-3.218407 z M 9.9589929,12.036894 c -1.136087,-0.36233 -1.3975644,-0.314898 -1.5695009,0.283632 -0.1719365,0.598507 0.020655,0.790777 1.1567752,1.153107 1.1360868,0.362318 1.3980108,0.31504 1.5699478,-0.283502 0.171925,-0.598507 -0.0211,-0.790907 -1.1572221,-1.153237 z m -1.031697,3.591373 C 7.7912089,15.265936 7.5297203,15.31338 7.357795,15.911899 c -0.1719476,0.598519 0.020766,0.790301 1.156898,1.152632 1.1360982,0.36233 1.397877,0.315503 1.569825,-0.283016 0.171925,-0.59853 -0.0211,-0.79093 -1.1572221,-1.153248 z m 11.2475261,3.587087 c -7.611862,-2.427595 -7.845048,-2.479111 -8.045399,-1.781668 -0.200362,0.697479 0.02099,0.790337 7.632807,3.217932 7.611829,2.427595 7.844892,2.479574 8.045231,1.782155 0.200362,-0.69749 -0.02077,-0.790812 -7.632639,-3.218419 z m -12.2790891,0.0036 c -1.1360982,-0.36233 -1.3975644,-0.314898 -1.5695121,0.283633 -0.1719364,0.598518 0.020655,0.790776 1.1567752,1.153106 1.136087,0.362319 1.3980222,0.315029 1.5699475,-0.283502 C 9.22488,19.773634 9.0318422,19.581234 7.8957329,19.218915 Z m 11.2475261,3.5871 c -7.611874,-2.427619 -7.84506,-2.479099 -8.045399,-1.781692 -0.200373,0.69749 0.02077,0.790824 7.632673,3.218419 7.611829,2.427595 7.845026,2.479075 8.045365,1.78168 0.200362,-0.697491 -0.02077,-0.790836 -7.632639,-3.218407 z"
     id="path1187"
     inkscape:connector-curvature="0" />
  <g
     id="Icons with numbers"
     transform="matrix(1.877973,0.54013064,-0.51792434,1.9584922,53.18137,6.468924)"
     style="fill:#e3edfb;fill-opacity:1;fill-rule:evenodd;stroke:none;stroke-width:0.13299605">
    <g
       transform="translate(-384,-48)"
       id="Group"
       style="fill:#e3edfb;fill-opacity:1;stroke-width:0.13299605">
      <g
         id="g326"
         style="stroke-width:0.13299605">
        <path
           id="Rectangle 129"
           style="fill:#e3edfb;fill-opacity:1;stroke-width:0.13299605"
           d="m 384.23327,47.016005 c -0.41691,0.276369 -0.32849,0.466731 -0.13403,0.701271 l 3.75341,0.04218 c 0.26766,-0.09905 0.31386,-0.468663 0.0753,-0.633421 z m 0.73748,17.401978 c 0.25817,0.170283 0.58492,0.226537 1.02837,0.08874 0.2508,-0.33429 0.13843,-0.597311 0.0397,-0.863017 -0.34357,-0.169759 -0.69949,-0.28695 -1.03958,-0.0063 -0.34009,0.280601 -0.15902,0.547876 -0.0285,0.780627 z m -3.44331,-15.62048 -0.4074,14.140679 8.95903,0.200315 0.47279,-14.184532 -0.33151,-0.225029 -8.24193,-0.189478 z m 0.93919,-2.750933 7.26515,0.09028 c 1.11211,0.01382 1.26634,0.766392 1.24166,1.867404 l -0.34612,15.438449 c -0.0246,1.09927 0.0428,1.865906 -1.06125,1.838558 l -7.65406,-0.189606 c -1.11184,-0.02754 -1.30937,-0.547939 -1.28469,-1.648952 l 0.34612,-15.438448 c 0.0246,-1.09927 0.38893,-1.971408 1.49319,-1.957685 z" />
      </g>
    </g>
  </g>
  <path
     inkscape:connector-curvature="0"
     style="color:#000000;font-style:normal;font-variant:normal;font-weight:normal;font-stretch:normal;font-size:medium;line-height:normal;font-family:sans-serif;font-variant-ligatures:normal;font-variant-position:normal;font-variant-caps:normal;font-variant-numeric:normal;font-variant-alternates:normal;font-feature-settings:normal;text-indent:0;text-align:start;text-decoration:none;text-decoration-line:none;text-decoration-style:solid;text-decoration-color:#000000;letter-spacing:normal;word-spacing:normal;text-transform:none;writing-mode:lr-tb;direction:ltr;text-orientation:mixed;dominant-baseline:auto;baseline-shift:baseline;text-anchor:start;white-space:normal;shape-padding:0;clip-rule:nonzero;display:inline;overflow:visible;visibility:visible;opacity:1;isolation:auto;mix-blend-mode:normal;color-interpolation:sRGB;color-interpolation-filters:linearRGB;solid-color:#000000;solid-opacity:1;vector-effect:none;fill:#1f80ff;fill-opacity:1;fill-rule:nonzero;stroke:none;stroke-width:0.26458338;stroke-linecap:butt;stroke-linejoin:miter;stroke-miterlimit:4;stroke-dasharray:none;stroke-dashoffset:0;stroke-opacity:1;color-rendering:auto;image-rendering:auto;shape-rendering:auto;text-rendering:auto;enable-background:accumulate"
     d="m 34.104577,10.469712 c -8.003609,0 -14.518861,6.794611 -14.518861,15.141378 0,7.573333 5.368551,13.849371 12.341512,14.950827 l 0.187161,0.02778 V 38.73647 l -0.137047,-0.02253 c -6.02339,-1.060625 -10.629213,-6.522617 -10.629213,-13.1029 0,-7.337381 5.720727,-13.306025 12.756448,-13.306025 7.035708,0 12.756435,5.968644 12.756435,13.306025 0,6.580283 -4.606437,12.042275 -10.629827,13.1029 l -0.136396,0.02253 v 1.853227 l 0.187161,-0.02778 c 6.972961,-1.101456 12.338971,-7.377494 12.338971,-14.950827 0,-8.346767 -6.512748,-15.141378 -14.516344,-15.141378 z m 0,2.995858 c -6.420205,0 -11.646184,5.45002 -11.646184,12.14552 0,5.916842 4.080665,10.852861 9.461849,11.922551 l 0.194147,0.04033 v -1.867772 l -0.129448,-0.03047 c -4.43564,-1.014687 -7.766639,-5.137338 -7.766639,-10.064676 0,-5.686869 4.433209,-10.310167 9.886275,-10.310167 5.453053,0 9.886299,4.623298 9.886299,10.310167 0,4.927338 -3.333541,9.049989 -7.769218,10.064702 l -0.126869,0.03047 v 1.867771 l 0.19411,-0.04033 c 5.381184,-1.069691 9.461849,-6.00571 9.461849,-11.922551 0,-6.6955 -5.225942,-12.145521 -11.646171,-12.145521 z m 0,2.993207 c -4.837525,0 -8.776011,4.107377 -8.776011,9.152313 0,4.253693 2.803153,7.82954 6.582161,8.849298 l 0.203662,0.05557 v -1.890933 l -0.115526,-0.037 c -2.842009,-0.934052 -4.910474,-3.706134 -4.910474,-6.976879 0,-4.035575 3.146465,-7.316959 7.016139,-7.316959 3.869661,0 7.016126,3.281384 7.016126,7.316959 0,3.270745 -2.069054,6.042071 -4.911088,6.976879 l -0.11479,0.037 v 1.890933 l 0.203626,-0.05557 C 40.07741,33.44063 42.8806,29.864783 42.8806,25.61109 c 0,-5.044936 -3.938486,-9.152313 -8.776036,-9.152313 z m 0,2.993207 c -3.254158,0 -5.903346,2.765412 -5.903346,6.159106 0,2.577459 1.52666,4.787859 3.687926,5.703897 l 0.225232,0.09462 v -2.01267 l -0.08189,-0.05032 c -1.280802,-0.770989 -2.069508,-2.193295 -2.071399,-3.735555 0,-2.385089 1.856418,-4.323753 4.143437,-4.323753 2.287031,0 4.143449,1.938664 4.143449,4.323753 -0.0025,1.54226 -0.791235,2.964566 -2.072038,3.735555 l -0.08115,0.05032 v 2.012667 l 0.222667,-0.09462 c 2.161303,-0.916038 3.690492,-3.126438 3.690492,-5.703897 0,-3.393694 -2.649201,-6.159106 -5.903371,-6.159106 z m 0,2.995858 c -1.673418,0 -3.03321,1.418081 -3.03321,3.163248 0,1.74518 1.359792,3.163261 3.03321,3.163261 1.673443,0 3.033198,-1.418081 3.033198,-3.163261 0,-1.745167 -1.359755,-3.163248 -3.033198,-3.163248 z"
     id="path242" />
</svg>
