<?xml version="1.0" encoding="UTF-8" standalone="no"?>
<svg
   xmlns:dc="http://purl.org/dc/elements/1.1/"
   xmlns:cc="http://creativecommons.org/ns#"
   xmlns:rdf="http://www.w3.org/1999/02/22-rdf-syntax-ns#"
   xmlns:svg="http://www.w3.org/2000/svg"
   xmlns="http://www.w3.org/2000/svg"
   id="svg1424"
   version="1.1"
   viewBox="0 0 38.801155 33.514362"
   height="33.514362mm"
   width="38.801155mm">
  <defs
     id="defs1418" />
  <metadata
     id="metadata1421">
    <rdf:RDF>
      <cc:Work
         rdf:about="">
        <dc:format>image/svg+xml</dc:format>
        <dc:type
           rdf:resource="http://purl.org/dc/dcmitype/StillImage" />
        <dc:title></dc:title>
      </cc:Work>
    </rdf:RDF>
  </metadata>
  <g
     transform="translate(-159.76009,-79.159489)"
     id="layer1">
    <rect
       style="opacity:1;vector-effect:none;fill:#e3edfb;fill-opacity:1;stroke:none;stroke-width:0.08819813;stroke-linecap:butt;stroke-linejoin:miter;stroke-miterlimit:4;stroke-dasharray:none;stroke-dashoffset:0;stroke-opacity:1;paint-order:fill markers stroke"
       id="rect1403"
       width="25.051977"
       height="25.350203"
       x="116.47309"
       y="149.37158"
       transform="matrix(0.91244145,-0.40920728,0.3973626,0.91766168,0,0)" />
    <path
       id="path1119"
       d="m 178.32501,86.216709 c -0.95599,-0.0107 -1.44825,1.22034 -1.518,1.9186 -0.0772,0.77242 0.45255,1.583721 1.50588,1.577641 0.99418,-0.006 1.5347,-0.802491 1.49351,-1.528911 -0.0397,-0.7006 -0.63498,-1.95777 -1.48139,-1.96733 z m 0.005,4.288261 c -0.77621,0 -1.59246,0.9127 -2.10566,1.85696 -0.6982,1.28465 -1.47472,6.03493 -1.01755,6.60161 0.16311,0.20218 0.60712,0.49825 0.66341,0.20942 0.0888,-0.45542 0.0513,-0.70197 0.24311,-0.69017 0.0779,0.005 0.14052,0.26934 0.1776,0.82423 0.0211,0.31606 0.0943,1.87777 0.0943,3.62099 0,1.97202 0.0935,3.2203 0.25934,3.46523 0.34751,0.51307 0.8083,0.4845 0.94952,-0.0588 0.0631,-0.24294 0.18165,-1.92993 0.26334,-3.7488 0.1181,-2.629429 0.15433,-3.125479 0.41205,-3.125479 0.25875,0 0.41652,0.5219 0.54226,3.305209 0.0791,1.7502 0.16245,2.83029 0.29622,3.41849 0.14734,0.64784 0.70016,0.55527 0.89853,0.14951 0.15299,-0.31294 0.17161,-0.68582 0.22167,-3.29361 0.0369,-1.92368 0.0485,-3.509989 0.0687,-3.805789 0.0306,-0.44778 0.1068,-0.75395 0.23405,-0.74568 0.25864,0.0168 0.16798,0.23336 0.26613,0.68671 0.0614,0.28356 0.55173,-0.0274 0.65622,-0.21142 0.4164,-0.7329 -0.54365,-5.50567 -1.01754,-6.45024 -0.48196,-0.96063 -1.32948,-2.00836 -2.10568,-2.00836 z"
       style="fill:#1f80ff;fill-opacity:1;stroke-width:0.99999982" />
    <path
       id="path1160"
       d="m 181.0759,83.007049 c -12.90474,0.003 -10.69048,0.19411 -11.27105,0.67816 -0.60648,0.50564 -0.16494,1.41826 -0.16494,13.235601 0,6.94433 0.1096,12.72624 0.24291,12.84899 0.1333,0.12288 -0.32163,0.18443 4.36837,0.13645 3.59596,-0.0368 5.32963,-0.0545 6.64248,-0.2195 1.51011,0.0491 2.0432,-0.80104 1.73864,-1.31499 -0.31331,-0.33329 -2.54884,-0.22438 -5.19417,-0.29427 -1.77454,-0.0469 -3.73874,-0.10865 -5.26774,-0.10943 -0.45917,-9.64751 -0.3261,-14.99632 -0.3261,-22.818541 0,0 6.26967,-0.17676 9.40458,-0.26235 4.58438,-0.12516 13.22864,-0.0525 13.22864,-0.0525 0.014,6.107831 0.13582,4.513031 0.23631,9.163581 0.082,3.7318 0.13724,4.05648 0.57729,4.01626 0.57402,-0.0524 1.10778,-1.28427 1.03856,-3.15143 -0.14175,-3.82346 0.27015,-10.309871 -0.2351,-11.086631 -0.16651,-0.5158 -0.57362,-0.67069 -1.01629,-0.77224 z"
       style="fill:#1f80ff;fill-opacity:1;stroke-width:0.99999982" />
    <path
       style="fill:#1f80ff;fill-opacity:1;stroke-width:0.99999982"
       d="m 187.85717,86.216709 c -0.95598,-0.0107 -1.44824,1.22034 -1.518,1.9186 -0.0772,0.77242 0.45256,1.583721 1.50589,1.577641 0.99417,-0.006 1.53469,-0.802491 1.4935,-1.528911 -0.0397,-0.7006 -0.63498,-1.95777 -1.48139,-1.96733 z m 0.005,4.288261 c -0.77621,0 -1.59245,0.9127 -2.10565,1.85696 -0.6982,1.28465 -1.47473,6.03493 -1.01755,6.60161 0.16311,0.20218 0.60711,0.49825 0.66341,0.20942 0.0888,-0.45542 0.0513,-0.70197 0.2431,-0.69017 0.0779,0.005 0.14053,0.26934 0.1776,0.82423 0.0211,0.31606 0.0943,1.87777 0.0943,3.62099 0,1.97202 0.0934,3.2203 0.25935,3.46523 0.34751,0.51307 0.80829,0.4845 0.94951,-0.0588 0.0632,-0.24294 0.18165,-1.92993 0.26334,-3.7488 0.11811,-2.629429 0.15433,-3.125479 0.41206,-3.125479 0.25874,0 0.41652,0.5219 0.54225,3.305209 0.0791,1.7502 0.16245,2.83029 0.29623,3.41849 0.14734,0.64784 0.70015,0.55527 0.89852,0.14951 0.153,-0.31294 0.17161,-0.68582 0.22167,-3.29361 0.0369,-1.92368 0.0485,-3.509989 0.0687,-3.805789 0.0306,-0.44778 0.1068,-0.75395 0.23405,-0.74568 0.25865,0.0168 0.16799,0.23336 0.26614,0.68671 0.0614,0.28356 0.55172,-0.0274 0.65622,-0.21142 0.4164,-0.7329 -0.54365,-5.50567 -1.01755,-6.45024 -0.48195,-0.96063 -1.32947,-2.00836 -2.10568,-2.00836 z"
       id="path1165" />
    <path
       id="path1167"
       d="m 163.01525,87.108729 c -0.95599,-0.0107 -1.44825,1.22033 -1.518,1.9186 -0.0772,0.772411 0.45256,1.58372 1.50589,1.577641 0.99417,-0.006 1.53469,-0.80249 1.4935,-1.528911 -0.0397,-0.7006 -0.63498,-1.95777 -1.48139,-1.96733 z m 0.005,4.288251 c -0.77621,0 -1.59246,0.91271 -2.10565,1.85697 -0.6982,1.28464 -1.47473,6.03492 -1.01755,6.6016 0.16311,0.20218 0.60711,0.49826 0.66341,0.20943 0.0888,-0.45543 0.0513,-0.70197 0.2431,-0.69018 0.0779,0.005 0.14053,0.26935 0.1776,0.82424 0.0211,0.31606 0.0943,1.87776 0.0943,3.62099 0,1.97201 0.0934,3.22029 0.25935,3.46523 0.34751,0.51307 0.80829,0.4845 0.94951,-0.0588 0.0632,-0.24293 0.18165,-1.92993 0.26334,-3.74879 0.11811,-2.62943 0.15433,-3.12548 0.41206,-3.12548 0.25874,0 0.41651,0.5219 0.54225,3.30521 0.0791,1.75019 0.16245,2.83029 0.29623,3.41849 0.14734,0.64784 0.70015,0.55527 0.89852,0.14951 0.153,-0.31294 0.17161,-0.68582 0.22167,-3.29362 0.0369,-1.92367 0.0485,-3.50998 0.0687,-3.80578 0.0306,-0.447782 0.1068,-0.753962 0.23405,-0.745682 0.25865,0.0168 0.16799,0.23336 0.26614,0.686712 0.0614,0.28356 0.55172,-0.0274 0.65622,-0.211422 0.4164,-0.7329 -0.54365,-5.50567 -1.01755,-6.45024 -0.48195,-0.96063 -1.32947,-2.00837 -2.10568,-2.00837 z"
       style="fill:#1f80ff;fill-opacity:1;stroke-width:0.99999982" />
  </g>
</svg>
