<?xml version="1.0" encoding="UTF-8" standalone="no"?>
<svg
   xmlns:dc="http://purl.org/dc/elements/1.1/"
   xmlns:cc="http://creativecommons.org/ns#"
   xmlns:rdf="http://www.w3.org/1999/02/22-rdf-syntax-ns#"
   xmlns:svg="http://www.w3.org/2000/svg"
   xmlns="http://www.w3.org/2000/svg"
   id="svg1342"
   version="1.1"
   viewBox="0 0 28.679001 30.568872"
   height="30.568872mm"
   width="28.679001mm">
  <defs
     id="defs1336" />
  <metadata
     id="metadata1339">
    <rdf:RDF>
      <cc:Work
         rdf:about="">
        <dc:format>image/svg+xml</dc:format>
        <dc:type
           rdf:resource="http://purl.org/dc/dcmitype/StillImage" />
        <dc:title></dc:title>
      </cc:Work>
    </rdf:RDF>
  </metadata>
  <g
     transform="translate(-157.26184,-205.36437)"
     id="layer1">
    <path
       id="rect1322"
       d="m 61.560818,260.74454 h 17.853048 v 18.06557 H 61.560818 Z"
       style="opacity:1;vector-effect:none;fill:#ffffff;fill-opacity:1;stroke:none;stroke-width:0.08819813;stroke-linecap:butt;stroke-linejoin:miter;stroke-miterlimit:4;stroke-dasharray:none;stroke-dashoffset:0;stroke-opacity:1;paint-order:fill markers stroke"
       transform="matrix(0.91244145,-0.40920728,0.3973626,0.91766168,0,0)" />
    <path
       id="path165"
       d="m 165.365,215.52449 c -0.0462,0.11546 -0.0365,0.26025 0.0407,0.41031 0.77398,1.50431 1.47635,2.32058 2.82424,3.37793 0.17961,0.14091 0.45355,0.2654 0.67715,0.15068 0.26013,-0.13344 0.18143,-0.50478 0.008,-0.68124 -0.53808,-0.54643 -0.99378,-0.81668 -1.39395,-1.45565 1.20333,0.73105 5.74552,2.54645 7.10567,3.21022 -0.76432,0.0471 -1.41698,-0.005 -2.15495,0.18522 -0.33089,0.17391 -0.21325,0.97612 0.28537,0.8968 1.25089,-0.17348 2.0889,-0.54213 3.28012,-0.30642 0.60705,0.12011 1.29349,0.0648 0.77883,-0.73235 -1.07151,-1.6596 -1.21436,-1.89898 -2.20651,-2.85851 -0.44976,-0.43497 -0.67676,0.4365 -0.44522,0.6848 0.78221,0.83883 0.82491,0.96619 1.16876,1.36341 -1.74543,-0.46304 -6.17942,-2.53056 -7.74929,-3.33517 0.23818,0.006 0.47627,0.0118 0.71443,0.0185 0.82845,-0.019 0.67733,0.0752 1.41804,-0.0833 0.65234,-0.14684 -0.0243,-0.83772 -0.21479,-0.86067 -1.20048,0.36221 -2.43817,0.0452 -3.70368,-0.23253 -0.22086,-2e-4 -0.37307,0.0996 -0.43258,0.24802 z"
       style="fill:#1c7eff;fill-opacity:0.98431373;fill-rule:nonzero;stroke:none;stroke-width:0.03527778" />
    <path
       id="path185"
       d="m 160.88296,205.36445 c -1.06359,-0.012 -1.61126,1.35771 -1.68886,2.13456 -0.0858,0.85935 0.50349,1.76198 1.67538,1.75522 1.10608,-0.006 1.70744,-0.89282 1.66161,-1.70102 -0.0442,-0.77946 -0.70645,-2.17813 -1.64813,-2.18876 z m 0.006,4.77094 c -0.86357,0 -1.7717,1.01544 -2.34266,2.06597 -0.77679,1.42926 -1.64072,6.71421 -1.13208,7.34468 0.18147,0.22493 0.67545,0.55433 0.73808,0.23299 0.0988,-0.50668 0.057,-0.78098 0.27047,-0.76785 0.0867,0.005 0.15634,0.29966 0.19759,0.91701 0.0235,0.35164 0.10487,2.08911 0.10487,4.02857 0,2.19397 0.10396,3.58275 0.28853,3.85526 0.38662,0.57082 0.89928,0.53904 1.0564,-0.0654 0.0702,-0.27028 0.20209,-2.14716 0.29298,-4.17076 0.13139,-2.9254 0.1717,-3.47726 0.45843,-3.47726 0.28787,0 0.4634,0.58062 0.60329,3.67722 0.088,1.94719 0.18073,3.14886 0.32957,3.80328 0.16392,0.72075 0.77896,0.61776 0.99966,0.16634 0.17021,-0.34817 0.19092,-0.76303 0.24662,-3.66435 0.0411,-2.14019 0.054,-3.90507 0.0764,-4.23415 0.034,-0.49819 0.11882,-0.83882 0.26039,-0.82962 0.28776,0.0187 0.18689,0.25963 0.2961,0.764 0.0683,0.31549 0.61382,-0.0305 0.73008,-0.23521 0.46327,-0.8154 -0.60485,-6.12537 -1.13208,-7.17626 -0.53618,-1.06873 -1.47909,-2.2344 -2.34267,-2.2344 z"
       style="fill:#1c7eff;fill-opacity:0.98431373;stroke-width:0.99999994" />
    <path
       style="fill:#1c7eff;fill-opacity:0.98431373;stroke-width:0.99999994"
       d="m 182.05694,211.2331 c -1.14939,-0.0129 -1.74124,1.46723 -1.82511,2.30675 -0.0928,0.92868 0.54411,1.90412 1.81054,1.89681 1.19531,-0.007 1.84518,-0.96484 1.79565,-1.83822 -0.0478,-0.84234 -0.76344,-2.35384 -1.78108,-2.36534 z m 0.006,5.15581 c -0.93324,0 -1.91463,1.09735 -2.53165,2.23264 -0.83945,1.54454 -1.77307,7.25583 -1.2234,7.93716 0.19611,0.24308 0.72993,0.59905 0.79762,0.25179 0.10673,-0.54756 0.0617,-0.84398 0.29228,-0.8298 0.0937,0.006 0.16896,0.32384 0.21353,0.99098 0.0254,0.38 0.11333,2.25765 0.11333,4.35355 0,2.37096 0.11235,3.87178 0.31182,4.16627 0.41781,0.61686 0.97181,0.58252 1.14161,-0.0707 0.0759,-0.29208 0.21839,-2.32037 0.31661,-4.50721 0.14199,-3.16139 0.18555,-3.75778 0.49542,-3.75778 0.31108,0 0.50078,0.62747 0.65195,3.97387 0.0951,2.10427 0.19532,3.40288 0.35616,4.11008 0.17714,0.7789 0.8418,0.6676 1.0803,0.17976 0.18395,-0.37625 0.20632,-0.82457 0.26651,-3.95994 0.0444,-2.31285 0.0583,-4.22009 0.0826,-4.57572 0.0368,-0.53837 0.12841,-0.90649 0.2814,-0.89654 0.31098,0.0202 0.20197,0.28057 0.31998,0.82563 0.0738,0.34093 0.66334,-0.033 0.78898,-0.25419 0.50064,-0.88117 -0.65364,-6.6195 -1.22341,-7.75517 -0.57945,-1.15497 -1.59843,-2.41467 -2.53167,-2.41467 z"
       id="path229" />
  </g>
</svg>
