<?xml version="1.0" encoding="UTF-8" standalone="no"?>
<svg
   xmlns:dc="http://purl.org/dc/elements/1.1/"
   xmlns:cc="http://creativecommons.org/ns#"
   xmlns:rdf="http://www.w3.org/1999/02/22-rdf-syntax-ns#"
   xmlns:svg="http://www.w3.org/2000/svg"
   xmlns="http://www.w3.org/2000/svg"
   id="svg973"
   version="1.1"
   viewBox="0 0 98.944923 11.753495"
   height="11.753495mm"
   width="98.944923mm">
  <defs
     id="defs967" />
  <metadata
     id="metadata970">
    <rdf:RDF>
      <cc:Work
         rdf:about="">
        <dc:format>image/svg+xml</dc:format>
        <dc:type
           rdf:resource="http://purl.org/dc/dcmitype/StillImage" />
        <dc:title></dc:title>
      </cc:Work>
    </rdf:RDF>
  </metadata>
  <g
     transform="translate(13.186749,-167.90302)"
     id="layer1"
     style="fill:#1d7eff;fill-opacity:1">
    <g
       id="text4690"
       style="font-style:normal;font-variant:normal;font-weight:normal;font-stretch:normal;font-size:13.16180897px;line-height:1.25;font-family:'Montserrat Black';-inkscape-font-specification:'Montserrat Black, ';font-variant-ligatures:normal;font-variant-caps:normal;font-variant-numeric:normal;font-feature-settings:normal;text-align:start;letter-spacing:0px;word-spacing:-3.57425427px;writing-mode:lr-tb;text-anchor:start;fill:#1d7eff;fill-opacity:1;stroke:none;stroke-width:0.26458332"
       aria-label="QueueBeacon">
      <path
         id="path1526"
         style="font-style:normal;font-variant:normal;font-weight:normal;font-stretch:normal;font-family:'Montserrat Black';-inkscape-font-specification:'Montserrat Black, ';fill:#1d7eff;stroke-width:0.26458332;fill-opacity:1"
         d="m -2.2887711,178.48511 q -0.4869869,0.57912 -1.171401,0.86868 -0.6844141,0.30272 -1.513608,0.30272 -0.829194,0 -1.4872844,-0.21058 -0.6580905,-0.19743 -1.3161809,-0.68442 -0.6580905,-0.47382 -1.5004463,-1.35567 -1.1582393,-0.23691 -2.0400803,-0.895 -0.881841,-0.67125 -1.38199,-1.64522 -0.486987,-0.97398 -0.486987,-2.14538 0,-1.38199 0.671252,-2.47442 0.671253,-1.10559 1.855815,-1.7242 1.1845632,-0.6186 2.6718476,-0.6186 1.4872844,0 2.6718472,0.6186 1.1845628,0.61861 1.8558151,1.7242 0.6712523,1.09243 0.6712523,2.47442 0,1.51361 -0.8028704,2.68501 -0.8028703,1.15824 -2.1716985,1.71103 0.1974272,0.21059 0.3948543,0.28956 0.2105889,0.0921 0.4606633,0.0921 0.6844141,0 1.2766955,-0.59228 z m -5.6990633,-8.06819 q -0.5791196,0 -1.0529447,0.28956 -0.4606633,0.2764 -0.7370613,0.80287 -0.2763976,0.51331 -0.2763976,1.21089 0,0.69758 0.2763976,1.22405 0.276398,0.51331 0.7370613,0.80287 0.4738251,0.2764 1.0529447,0.2764 0.5791196,0 1.0397829,-0.2764 0.4738251,-0.28956 0.7502231,-0.80287 0.276398,-0.52647 0.276398,-1.22405 0,-0.69758 -0.276398,-1.21089 -0.276398,-0.52647 -0.7502231,-0.80287 -0.4606633,-0.28956 -1.0397829,-0.28956 z" />
      <path
         id="path1528"
         style="font-style:normal;font-variant:normal;font-weight:normal;font-stretch:normal;font-family:'Montserrat Black';-inkscape-font-specification:'Montserrat Black, ';fill:#1d7eff;stroke-width:0.26458332;fill-opacity:1"
         d="m 6.1171005,170.12736 v 7.19951 h -2.829789 v -0.68441 q -0.3948542,0.40802 -0.9213266,0.6186 -0.5264724,0.19743 -1.1187538,0.19743 -1.36882809,0 -2.19802205,-0.82919 -0.82919395,-0.84236 -0.82919395,-2.52707 v -3.97487 h 2.9745688 v 3.46156 q 0,0.73706 0.2369126,1.05294 0.2369125,0.31589 0.6975758,0.31589 0.4343397,0 0.7238995,-0.34221 0.2895598,-0.35537 0.2895598,-1.10559 v -3.38259 z" />
      <path
         id="path1530"
         style="font-style:normal;font-variant:normal;font-weight:normal;font-stretch:normal;font-family:'Montserrat Black';-inkscape-font-specification:'Montserrat Black, ';fill:#1d7eff;stroke-width:0.26458332;fill-opacity:1"
         d="m 15.083787,173.72054 q 0,0.0658 -0.03948,0.69757 h -5.001488 q 0.157942,0.40802 0.526473,0.63177 0.36853,0.21059 0.921326,0.21059 0.473825,0 0.789709,-0.11846 0.329045,-0.11845 0.710738,-0.40801 l 1.553093,1.56625 q -1.052945,1.15824 -3.145672,1.15824 -1.303019,0 -2.2901551,-0.47382 -0.9871357,-0.48699 -1.5267698,-1.34251 -0.5396342,-0.85552 -0.5396342,-1.92162 0,-1.07927 0.5264724,-1.92163 0.5396341,-0.85551 1.4609608,-1.32934 0.9344884,-0.47382 2.0927279,-0.47382 1.09243,0 1.987433,0.43434 0.908165,0.43434 1.434637,1.27669 0.539634,0.84236 0.539634,2.01376 z m -3.935381,-1.69788 q -0.460663,0 -0.763385,0.25008 -0.302721,0.25007 -0.3948539,0.71074 h 2.3164779 q -0.09213,-0.4475 -0.394854,-0.69758 -0.302721,-0.26324 -0.763385,-0.26324 z" />
      <path
         id="path1532"
         style="font-style:normal;font-variant:normal;font-weight:normal;font-stretch:normal;font-family:'Montserrat Black';-inkscape-font-specification:'Montserrat Black, ';fill:#1d7eff;stroke-width:0.26458332;fill-opacity:1"
         d="m 23.880401,170.12736 v 7.19951 h -2.829789 v -0.68441 q -0.394854,0.40802 -0.921326,0.6186 -0.526473,0.19743 -1.118754,0.19743 -1.368828,0 -2.198022,-0.82919 -0.829194,-0.84236 -0.829194,-2.52707 v -3.97487 h 2.974569 v 3.46156 q 0,0.73706 0.236912,1.05294 0.236913,0.31589 0.697576,0.31589 0.43434,0 0.7239,-0.34221 0.28956,-0.35537 0.28956,-1.10559 v -3.38259 z" />
      <path
         id="path1534"
         style="font-style:normal;font-variant:normal;font-weight:normal;font-stretch:normal;font-family:'Montserrat Black';-inkscape-font-specification:'Montserrat Black, ';fill:#1d7eff;stroke-width:0.26458332;fill-opacity:1"
         d="m 32.847089,173.72054 q 0,0.0658 -0.03948,0.69757 h -5.001488 q 0.157942,0.40802 0.526473,0.63177 0.36853,0.21059 0.921326,0.21059 0.473825,0 0.789709,-0.11846 0.329045,-0.11845 0.710737,-0.40801 l 1.553094,1.56625 q -1.052945,1.15824 -3.145672,1.15824 -1.30302,0 -2.290155,-0.47382 -0.987136,-0.48699 -1.52677,-1.34251 -0.539634,-0.85552 -0.539634,-1.92162 0,-1.07927 0.526472,-1.92163 0.539634,-0.85551 1.460961,-1.32934 0.934488,-0.47382 2.092728,-0.47382 1.09243,0 1.987433,0.43434 0.908165,0.43434 1.434637,1.27669 0.539634,0.84236 0.539634,2.01376 z m -3.935381,-1.69788 q -0.460663,0 -0.763385,0.25008 -0.302721,0.25007 -0.394854,0.71074 h 2.316478 q -0.09213,-0.4475 -0.394854,-0.69758 -0.302722,-0.26324 -0.763385,-0.26324 z" />
      <path
         id="path1536"
         style="font-style:normal;font-variant:normal;font-weight:normal;font-stretch:normal;font-family:'Montserrat Black';-inkscape-font-specification:'Montserrat Black, ';fill:#1d7eff;stroke-width:0.26458332;fill-opacity:1"
         d="m 41.235687,172.50965 q 0.816032,0.30272 1.263534,0.88184 0.447501,0.57912 0.447501,1.39515 0,1.21089 -1.000297,1.88214 -1.000298,0.65809 -2.895598,0.65809 h -5.185753 v -9.21326 h 4.922517 q 1.842653,0 2.777141,0.65809 0.947651,0.65809 0.947651,1.75052 0,0.64493 -0.329046,1.15824 -0.315883,0.51331 -0.94765,0.82919 z m -4.317073,-2.22434 v 1.36882 h 1.447799 q 1.013459,0 1.013459,-0.68441 0,-0.68441 -1.013459,-0.68441 z m 1.868977,4.86987 q 1.026621,0 1.026621,-0.7239 0,-0.7239 -1.026621,-0.7239 h -1.868977 v 1.4478 z" />
      <path
         id="path1538"
         style="font-style:normal;font-variant:normal;font-weight:normal;font-stretch:normal;font-family:'Montserrat Black';-inkscape-font-specification:'Montserrat Black, ';fill:#1d7eff;stroke-width:0.26458332;fill-opacity:1"
         d="m 51.612951,173.72054 q 0,0.0658 -0.03949,0.69757 h -5.001487 q 0.157941,0.40802 0.526472,0.63177 0.368531,0.21059 0.921327,0.21059 0.473825,0 0.789708,-0.11846 0.329045,-0.11845 0.710738,-0.40801 l 1.553093,1.56625 q -1.052944,1.15824 -3.145672,1.15824 -1.303019,0 -2.290155,-0.47382 -0.987135,-0.48699 -1.52677,-1.34251 -0.539634,-0.85552 -0.539634,-1.92162 0,-1.07927 0.526473,-1.92163 0.539634,-0.85551 1.46096,-1.32934 0.934489,-0.47382 2.092728,-0.47382 1.09243,0 1.987433,0.43434 0.908165,0.43434 1.434637,1.27669 0.539635,0.84236 0.539635,2.01376 z m -3.935381,-1.69788 q -0.460664,0 -0.763385,0.25008 -0.302722,0.25007 -0.394855,0.71074 h 2.316479 q -0.09213,-0.4475 -0.394854,-0.69758 -0.302722,-0.26324 -0.763385,-0.26324 z" />
      <path
         id="path1540"
         style="font-style:normal;font-variant:normal;font-weight:normal;font-stretch:normal;font-family:'Montserrat Black';-inkscape-font-specification:'Montserrat Black, ';fill:#1d7eff;stroke-width:0.26458332;fill-opacity:1"
         d="m 55.557792,169.99575 q 1.895301,0 2.895598,0.85551 1.000297,0.84236 1.000297,2.60604 v 3.86957 h -2.763979 v -0.94765 q -0.513311,1.07927 -2.040081,1.07927 -0.855517,0 -1.460961,-0.28956 -0.592281,-0.30272 -0.908164,-0.80287 -0.302722,-0.51331 -0.302722,-1.14508 0,-1.0661 0.816032,-1.6189 0.816032,-0.55279 2.47442,-0.55279 h 1.197725 q -0.14478,-0.84236 -1.355666,-0.84236 -0.486987,0 -0.987136,0.15794 -0.500149,0.14478 -0.855518,0.40802 l -0.94765,-1.96111 q 0.618605,-0.38169 1.487284,-0.59228 0.881842,-0.22375 1.750521,-0.22375 z m -0.01316,5.67274 q 0.315884,0 0.565958,-0.17111 0.250074,-0.1711 0.368531,-0.51331 v -0.50015 h -0.737062 q -0.908164,0 -0.908164,0.60545 0,0.25007 0.184265,0.42117 0.197427,0.15795 0.526472,0.15795 z" />
      <path
         id="path1542"
         style="font-style:normal;font-variant:normal;font-weight:normal;font-stretch:normal;font-family:'Montserrat Black';-inkscape-font-specification:'Montserrat Black, ';fill:#1d7eff;stroke-width:0.26458332;fill-opacity:1"
         d="m 64.737328,177.45849 q -1.224049,0 -2.198023,-0.47382 -0.960812,-0.47383 -1.513608,-1.32935 -0.539634,-0.85551 -0.539634,-1.93478 0,-1.07927 0.539634,-1.92163 0.552796,-0.85551 1.513608,-1.32934 0.973974,-0.47382 2.198023,-0.47382 1.31618,0 2.250669,0.56595 0.934488,0.56596 1.289857,1.56626 l -2.303316,1.13191 q -0.421178,-0.94765 -1.250372,-0.94765 -0.526473,0 -0.881841,0.36854 -0.342207,0.36853 -0.342207,1.03978 0,0.68441 0.342207,1.05294 0.355368,0.36853 0.881841,0.36853 0.829194,0 1.250372,-0.94765 l 2.303316,1.13192 q -0.355369,1.0003 -1.289857,1.56625 -0.934489,0.56596 -2.250669,0.56596 z" />
      <path
         id="path1544"
         style="font-style:normal;font-variant:normal;font-weight:normal;font-stretch:normal;font-family:'Montserrat Black';-inkscape-font-specification:'Montserrat Black, ';fill:#1d7eff;stroke-width:0.26458332;fill-opacity:1"
         d="m 72.691996,177.45849 q -1.197725,0 -2.158537,-0.47382 -0.94765,-0.48699 -1.487284,-1.32935 -0.539634,-0.85551 -0.539634,-1.93478 0,-1.07927 0.539634,-1.92163 0.539634,-0.85551 1.487284,-1.32934 0.960812,-0.47382 2.158537,-0.47382 1.210886,0 2.158537,0.47382 0.960812,0.47383 1.487284,1.32934 0.539634,0.84236 0.539634,1.92163 0,1.07927 -0.539634,1.93478 -0.526472,0.84236 -1.487284,1.32935 -0.947651,0.47382 -2.158537,0.47382 z m 0,-2.31648 q 0.51331,0 0.842356,-0.36853 0.329045,-0.38169 0.329045,-1.05294 0,-0.67125 -0.329045,-1.03978 -0.329046,-0.36854 -0.842356,-0.36854 -0.513311,0 -0.842356,0.36854 -0.329045,0.36853 -0.329045,1.03978 0,0.67125 0.329045,1.05294 0.329045,0.36853 0.842356,0.36853 z" />
      <path
         id="path1546"
         style="font-style:normal;font-variant:normal;font-weight:normal;font-stretch:normal;font-family:'Montserrat Black';-inkscape-font-specification:'Montserrat Black, ';fill:#1d7eff;stroke-width:0.26458332;fill-opacity:1"
         d="m 82.809932,169.99575 q 1.329343,0 2.132213,0.80287 0.816032,0.80287 0.816032,2.42177 v 4.10648 h -2.974568 v -3.59317 q 0,-1.23721 -0.881842,-1.23721 -0.500148,0 -0.816032,0.35537 -0.302721,0.34221 -0.302721,1.09243 v 3.38258 h -2.974569 v -7.19951 h 2.829789 v 0.71074 q 0.421178,-0.42118 0.973974,-0.63176 0.552796,-0.21059 1.197724,-0.21059 z" />
    </g>
  </g>
</svg>
