<?xml version="1.0" encoding="UTF-8" standalone="no"?>
<svg
   xmlns:dc="http://purl.org/dc/elements/1.1/"
   xmlns:cc="http://creativecommons.org/ns#"
   xmlns:rdf="http://www.w3.org/1999/02/22-rdf-syntax-ns#"
   xmlns:svg="http://www.w3.org/2000/svg"
   xmlns="http://www.w3.org/2000/svg"
   xmlns:sodipodi="http://sodipodi.sourceforge.net/DTD/sodipodi-0.dtd"
   xmlns:inkscape="http://www.inkscape.org/namespaces/inkscape"
   id="svg973"
   version="1.1"
   viewBox="0 0 98.944809 13.012756"
   height="13.012756mm"
   width="98.944809mm"
   sodipodi:docname="queuebeacon.svg"
   inkscape:version="0.92.5 (0.92.5+68)">
  <sodipodi:namedview
     pagecolor="#ffffff"
     bordercolor="#666666"
     borderopacity="1"
     objecttolerance="10"
     gridtolerance="10"
     guidetolerance="10"
     inkscape:pageopacity="0"
     inkscape:pageshadow="2"
     inkscape:window-width="1237"
     inkscape:window-height="850"
     id="namedview18"
     showgrid="false"
     fit-margin-top="0"
     fit-margin-left="0"
     fit-margin-right="0"
     fit-margin-bottom="0"
     inkscape:zoom="2.756942"
     inkscape:cx="165.03772"
     inkscape:cy="-13.046554"
     inkscape:window-x="0"
     inkscape:window-y="0"
     inkscape:window-maximized="0"
     inkscape:current-layer="svg973" />
  <defs
     id="defs967" />
  <metadata
     id="metadata970">
    <rdf:RDF>
      <cc:Work
         rdf:about="">
        <dc:format>image/svg+xml</dc:format>
        <dc:type
           rdf:resource="http://purl.org/dc/dcmitype/StillImage" />
        <dc:title></dc:title>
      </cc:Work>
    </rdf:RDF>
  </metadata>
  <path
     style="font-style:normal;font-variant:normal;font-weight:normal;font-stretch:normal;font-size:13.16180897px;line-height:1.25;font-family:'Montserrat Black';-inkscape-font-specification:'Montserrat Black, ';font-variant-ligatures:normal;font-variant-caps:normal;font-variant-numeric:normal;font-feature-settings:normal;text-align:start;letter-spacing:0px;word-spacing:-3.57425427px;writing-mode:lr-tb;text-anchor:start;fill:#1d7eff;fill-opacity:0.98278186;stroke:none;stroke-width:0.26458332"
     d="m 5.1986501,0.8475267 c -0.991524,0 -1.8819631,0.206166 -2.6716703,0.6185668 C 1.73727,1.8784969 1.11878,2.4534761 0.6712771,3.1905366 0.2237767,3.9188234 0,4.7434767 0,5.6648061 0,6.4457397 0.1621341,7.1610936 0.4867937,7.8104102 0.8202269,8.4597268 1.2807262,9.0082874 1.8686198,9.4557878 2.456516,9.8945146 3.1366459,10.192883 3.9088059,10.350823 c 0.5833212,1.414687 1.7929172,2.642164 3.9299942,2.652035 v 0.0098 h 2.4350239 v -2.16214 H 8.1116511 c -0.313179,-0.03737 -0.860451,-0.170736 -1.12913,-0.701236 1.147445,-0.221721 2.076997,-1.0272132 2.612244,-1.7993732 0.5352469,-0.7809335 0.8030499,-1.6760348 0.8030499,-2.6851053 0,-0.9213295 -0.223774,-1.7459828 -0.6712769,-2.4742695 -0.4475,-0.7370605 -1.06599,-1.3120398 -1.8557,-1.7244432 -0.78971,-0.4124007 -1.680665,-0.6185667 -2.672188,-0.6185667 z m 0,2.5140604 c 0.38608,0 0.73262,0.096348 1.03973,0.289388 0.315883,0.1842638 0.566076,0.4520697 0.750342,0.8030501 0.184267,0.3422068 0.276469,0.7457281 0.276469,1.2107809 0,0.4650502 -0.0922,0.8732335 -0.276469,1.2242138 -0.184266,0.3422068 -0.434459,0.6100101 -0.750342,0.8030528 -0.30711,0.1842664 -0.65365,0.2764684 -1.03973,0.2764684 -0.38608,0 -0.736764,-0.092205 -1.0526479,-0.2764684 C 3.8388924,7.4990327 3.5928432,7.2312267 3.4085794,6.8890199 3.2243103,6.5380396 3.1326269,6.1298563 3.1326269,5.6648061 c 0,-0.4650528 0.091686,-0.8685741 0.2759525,-1.2107809 0.1842638,-0.3509804 0.430313,-0.6187863 0.7374228,-0.8030501 0.3158839,-0.19304 0.6665679,-0.289388 1.0526479,-0.289388 z"
     id="path1237"
     inkscape:connector-curvature="0"
     sodipodi:nodetypes="sccsccccccccccsccssccsccsccsccs" />
  <path
     inkscape:connector-curvature="0"
     id="path1239"
     style="font-style:normal;font-variant:normal;font-weight:normal;font-stretch:normal;font-size:13.16180897px;line-height:1.25;font-family:'Montserrat Black';-inkscape-font-specification:'Montserrat Black, ';font-variant-ligatures:normal;font-variant-caps:normal;font-variant-numeric:normal;font-feature-settings:normal;text-align:start;letter-spacing:0px;word-spacing:-3.57425427px;writing-mode:lr-tb;text-anchor:start;fill:#1d7eff;fill-opacity:0.98278186;stroke:none;stroke-width:0.26458332"
     d="M 19.303732,2.0137568 V 9.2132657 H 16.473943 V 8.5288518 q -0.394854,0.4080158 -0.921327,0.6186049 -0.526472,0.197427 -1.118754,0.197427 -1.368828,0 -2.198022,-0.8291941 -0.829194,-0.842355 -0.829194,-2.5270668 v -3.974866 h 2.974569 v 3.4615561 q 0,0.7370608 0.236913,1.052944 0.236912,0.3158839 0.697576,0.3158839 0.434339,0 0.723899,-0.3422071 0.28956,-0.355369 0.28956,-1.1055918 V 2.0137568 Z" />
  <path
     inkscape:connector-curvature="0"
     id="path1241"
     style="font-style:normal;font-variant:normal;font-weight:normal;font-stretch:normal;font-size:13.16180897px;line-height:1.25;font-family:'Montserrat Black';-inkscape-font-specification:'Montserrat Black, ';font-variant-ligatures:normal;font-variant-caps:normal;font-variant-numeric:normal;font-feature-settings:normal;text-align:start;letter-spacing:0px;word-spacing:-3.57425427px;writing-mode:lr-tb;text-anchor:start;fill:#1d7eff;fill-opacity:0.98278186;stroke:none;stroke-width:0.26458332"
     d="m 28.270419,5.6069306 q 0,0.06581 -0.03948,0.6975761 h -5.001487 q 0.157941,0.408016 0.526472,0.631766 0.368531,0.210589 0.921327,0.210589 0.473825,0 0.789708,-0.1184561 0.329044,-0.1184558 0.710737,-0.4080158 l 1.553092,1.566255 q -1.052944,1.1582389 -3.145671,1.1582389 -1.303019,0 -2.290155,-0.4738251 -0.987135,-0.4869868 -1.52677,-1.342504 -0.539634,-0.8555177 -0.539634,-1.921624 0,-1.079269 0.526473,-1.9216237 0.539634,-0.855518 1.46096,-1.3293431 0.934489,-0.473825 2.092728,-0.473825 1.09243,0 1.987433,0.434339 0.908166,0.4343401 1.434636,1.2766959 0.539636,0.842356 0.539636,2.0137569 z M 24.335038,3.9090568 q -0.460664,0 -0.763385,0.2500749 -0.302722,0.2500741 -0.394855,0.710737 h 2.316479 Q 25.401147,4.4223678 25.098423,4.1722937 24.795701,3.9090568 24.335038,3.9090568 Z" />
  <path
     inkscape:connector-curvature="0"
     id="path1243"
     style="font-style:normal;font-variant:normal;font-weight:normal;font-stretch:normal;font-size:13.16180897px;line-height:1.25;font-family:'Montserrat Black';-inkscape-font-specification:'Montserrat Black, ';font-variant-ligatures:normal;font-variant-caps:normal;font-variant-numeric:normal;font-feature-settings:normal;text-align:start;letter-spacing:0px;word-spacing:-3.57425427px;writing-mode:lr-tb;text-anchor:start;fill:#1d7eff;fill-opacity:0.98278186;stroke:none;stroke-width:0.26458332"
     d="m 37.067034,2.0137568 v 7.1995089 h -2.82979 V 8.5288518 q -0.394856,0.4080158 -0.921327,0.6186049 -0.526473,0.197427 -1.118753,0.197427 -1.36883,0 -2.198024,-0.8291941 -0.829193,-0.842355 -0.829193,-2.5270668 v -3.974866 h 2.97457 v 3.4615561 q 0,0.7370608 0.236913,1.052944 0.236911,0.3158839 0.697574,0.3158839 0.43434,0 0.7239,-0.3422071 0.28956,-0.355369 0.28956,-1.1055918 V 2.0137568 Z" />
  <path
     inkscape:connector-curvature="0"
     id="path1245"
     style="font-style:normal;font-variant:normal;font-weight:normal;font-stretch:normal;font-size:13.16180897px;line-height:1.25;font-family:'Montserrat Black';-inkscape-font-specification:'Montserrat Black, ';font-variant-ligatures:normal;font-variant-caps:normal;font-variant-numeric:normal;font-feature-settings:normal;text-align:start;letter-spacing:0px;word-spacing:-3.57425427px;writing-mode:lr-tb;text-anchor:start;fill:#1d7eff;fill-opacity:0.98278186;stroke:none;stroke-width:0.26458332"
     d="m 46.033721,5.6069306 q 0,0.06581 -0.03948,0.6975761 h -5.001488 q 0.157941,0.408016 0.526473,0.631766 0.368531,0.210589 0.921327,0.210589 0.473824,0 0.789707,-0.1184561 0.329046,-0.1184558 0.710739,-0.4080158 l 1.553091,1.566255 q -1.052944,1.1582389 -3.145671,1.1582389 -1.30302,0 -2.290154,-0.4738251 -0.987137,-0.4869868 -1.52677,-1.342504 -0.539636,-0.8555177 -0.539636,-1.921624 0,-1.079269 0.526473,-1.9216237 0.539636,-0.855518 1.46096,-1.3293431 0.93449,-0.473825 2.09273,-0.473825 1.09243,0 1.987431,0.434339 0.908166,0.4343401 1.434637,1.2766959 0.539636,0.842356 0.539636,2.0137569 z M 42.09834,3.9090568 q -0.460663,0 -0.763386,0.2500749 -0.302721,0.2500741 -0.394854,0.710737 h 2.31648 Q 43.16445,4.4223678 42.861724,4.1722937 42.559004,3.9090568 42.09834,3.9090568 Z" />
  <path
     inkscape:connector-curvature="0"
     id="path1247"
     style="font-style:normal;font-variant:normal;font-weight:normal;font-stretch:normal;font-size:13.16180897px;line-height:1.25;font-family:'Montserrat Black';-inkscape-font-specification:'Montserrat Black, ';font-variant-ligatures:normal;font-variant-caps:normal;font-variant-numeric:normal;font-feature-settings:normal;text-align:start;letter-spacing:0px;word-spacing:-3.57425427px;writing-mode:lr-tb;text-anchor:start;fill:#1d7eff;fill-opacity:0.98278186;stroke:none;stroke-width:0.26458332"
     d="m 54.422317,4.3960439 q 0.816033,0.3027219 1.263536,0.8818408 0.4475,0.57912 0.4475,1.3951522 0,1.2108867 -1.000297,1.8821389 -1.000297,0.6580899 -2.895597,0.6580899 H 47.051705 V 0 h 4.922517 q 1.842654,0 2.777141,0.6580908 0.94765,0.65809 0.94765,1.75052 0,0.644929 -0.329044,1.158239 -0.315886,0.5133109 -0.947652,0.8291941 z M 50.105245,2.1716988 v 1.3688281 h 1.447798 q 1.01346,0 1.01346,-0.6844141 0,-0.684414 -1.01346,-0.684414 z m 1.868977,4.869869 q 1.026621,0 1.026621,-0.7239 0,-0.7238991 -1.026621,-0.7238991 h -1.868977 v 1.4477991 z" />
  <path
     inkscape:connector-curvature="0"
     id="path1249"
     style="font-style:normal;font-variant:normal;font-weight:normal;font-stretch:normal;font-size:13.16180897px;line-height:1.25;font-family:'Montserrat Black';-inkscape-font-specification:'Montserrat Black, ';font-variant-ligatures:normal;font-variant-caps:normal;font-variant-numeric:normal;font-feature-settings:normal;text-align:start;letter-spacing:0px;word-spacing:-3.57425427px;writing-mode:lr-tb;text-anchor:start;fill:#1d7eff;fill-opacity:0.98278186;stroke:none;stroke-width:0.26458332"
     d="m 64.799582,5.6069306 q 0,0.06581 -0.03949,0.6975761 h -5.001488 q 0.157941,0.408016 0.526471,0.631766 0.368533,0.210589 0.921327,0.210589 0.473826,0 0.789709,-0.1184561 0.329048,-0.1184558 0.710738,-0.4080158 l 1.553094,1.566255 q -1.052944,1.1582389 -3.145671,1.1582389 -1.30302,0 -2.290157,-0.4738251 -0.987134,-0.4869868 -1.526767,-1.342504 -0.539636,-0.8555177 -0.539636,-1.921624 0,-1.079269 0.526473,-1.9216237 0.539633,-0.855518 1.46096,-1.3293431 0.93449,-0.473825 2.092727,-0.473825 1.092431,0 1.987434,0.434339 0.908164,0.4343401 1.434637,1.2766959 0.539633,0.842356 0.539633,2.0137569 z M 60.864201,3.9090568 q -0.460663,0 -0.763386,0.2500749 -0.302721,0.2500741 -0.394854,0.710737 h 2.316477 Q 61.930308,4.4223678 61.627585,4.1722937 61.324864,3.9090568 60.864201,3.9090568 Z" />
  <path
     inkscape:connector-curvature="0"
     id="path1251"
     style="font-style:normal;font-variant:normal;font-weight:normal;font-stretch:normal;font-size:13.16180897px;line-height:1.25;font-family:'Montserrat Black';-inkscape-font-specification:'Montserrat Black, ';font-variant-ligatures:normal;font-variant-caps:normal;font-variant-numeric:normal;font-feature-settings:normal;text-align:start;letter-spacing:0px;word-spacing:-3.57425427px;writing-mode:lr-tb;text-anchor:start;fill:#1d7eff;fill-opacity:0.98278186;stroke:none;stroke-width:0.26458332"
     d="m 68.744424,1.8821388 q 1.8953,0 2.895597,0.8555169 1.0003,0.842356 1.0003,2.6060391 V 9.2132657 H 69.876338 V 8.2656158 q -0.51331,1.0792679 -2.040081,1.0792679 -0.855516,0 -1.46096,-0.2895589 -0.59228,-0.302722 -0.908164,-0.802871 -0.302723,-0.5133102 -0.302723,-1.1450769 0,-1.0661071 0.816034,-1.6189031 0.816033,-0.5527961 2.47442,-0.5527961 h 1.197724 q -0.14478,-0.842355 -1.355667,-0.842355 -0.486987,0 -0.987134,0.1579412 -0.50015,0.14478 -0.85552,0.4080158 l -0.94765,-1.9611089 q 0.618607,-0.381693 1.487287,-0.592282 0.88184,-0.22375 1.75052,-0.22375 z m -0.01315,5.6727389 q 0.315883,0 0.565957,-0.1711031 0.250074,-0.1711039 0.36853,-0.513311 V 6.3703157 h -0.73706 q -0.908167,0 -0.908167,0.6054431 0,0.2500739 0.184267,0.421178 0.197427,0.1579409 0.526473,0.1579409 z" />
  <path
     inkscape:connector-curvature="0"
     id="path1253"
     style="font-style:normal;font-variant:normal;font-weight:normal;font-stretch:normal;font-size:13.16180897px;line-height:1.25;font-family:'Montserrat Black';-inkscape-font-specification:'Montserrat Black, ';font-variant-ligatures:normal;font-variant-caps:normal;font-variant-numeric:normal;font-feature-settings:normal;text-align:start;letter-spacing:0px;word-spacing:-3.57425427px;writing-mode:lr-tb;text-anchor:start;fill:#1d7eff;fill-opacity:0.98278186;stroke:none;stroke-width:0.26458332"
     d="m 77.923963,9.3448837 q -1.22405,0 -2.198032,-0.4738251 -0.96081,-0.4738248 -1.513599,-1.3293418 -0.539641,-0.855518 -0.539641,-1.9347862 0,-1.079269 0.539641,-1.9216237 0.552789,-0.855518 1.513599,-1.3293431 0.973982,-0.473825 2.198032,-0.473825 1.316177,0 2.25067,0.565958 0.934479,0.5659569 1.289849,1.5662549 l -2.303309,1.131915 Q 78.73999,4.1986168 77.910802,4.1986168 q -0.526481,0 -0.881851,0.368531 -0.342199,0.3685299 -0.342199,1.0397828 0,0.6844141 0.342199,1.052944 0.35537,0.368531 0.881851,0.368531 0.829188,0 1.250371,-0.9476499 l 2.303309,1.131915 q -0.35537,1.000298 -1.289849,1.566256 -0.934493,0.565957 -2.25067,0.565957 z" />
  <path
     inkscape:connector-curvature="0"
     id="path1255"
     style="font-style:normal;font-variant:normal;font-weight:normal;font-stretch:normal;font-size:13.16180897px;line-height:1.25;font-family:'Montserrat Black';-inkscape-font-specification:'Montserrat Black, ';font-variant-ligatures:normal;font-variant-caps:normal;font-variant-numeric:normal;font-feature-settings:normal;text-align:start;letter-spacing:0px;word-spacing:-3.57425427px;writing-mode:lr-tb;text-anchor:start;fill:#1d7eff;fill-opacity:0.98278186;stroke:none;stroke-width:0.26458332"
     d="m 85.878631,9.3448837 q -1.197729,0 -2.158539,-0.4738251 -0.947651,-0.4869868 -1.487289,-1.3293418 -0.539631,-0.855518 -0.539631,-1.9347862 0,-1.079269 0.539631,-1.9216237 0.539638,-0.855518 1.487289,-1.3293431 0.96081,-0.473825 2.158539,-0.473825 1.210882,0 2.158529,0.473825 0.960811,0.4738251 1.487292,1.3293431 0.539628,0.8423547 0.539628,1.9216237 0,1.0792682 -0.539628,1.9347862 -0.526481,0.842355 -1.487292,1.3293418 -0.947647,0.4738251 -2.158529,0.4738251 z m 0,-2.3164781 q 0.51331,0 0.842351,-0.368531 0.32905,-0.3816918 0.32905,-1.052944 0,-0.6712529 -0.32905,-1.0397828 -0.329041,-0.368531 -0.842351,-0.368531 -0.513321,0 -0.842359,0.368531 -0.329052,0.3685299 -0.329052,1.0397828 0,0.6712522 0.329052,1.052944 0.329038,0.368531 0.842359,0.368531 z" />
  <path
     inkscape:connector-curvature="0"
     id="path1257"
     style="font-style:normal;font-variant:normal;font-weight:normal;font-stretch:normal;font-size:13.16180897px;line-height:1.25;font-family:'Montserrat Black';-inkscape-font-specification:'Montserrat Black, ';font-variant-ligatures:normal;font-variant-caps:normal;font-variant-numeric:normal;font-feature-settings:normal;text-align:start;letter-spacing:0px;word-spacing:-3.57425427px;writing-mode:lr-tb;text-anchor:start;fill:#1d7eff;fill-opacity:0.98278186;stroke:none;stroke-width:0.26458332"
     d="m 95.996559,1.8821388 q 1.32934,0 2.13221,0.8028701 0.81604,0.8028699 0.81604,2.421773 v 4.1064838 h -2.97457 V 5.6200918 q 0,-1.2372102 -0.88184,-1.2372102 -0.50015,0 -0.81604,0.355369 -0.302717,0.3422071 -0.302717,1.0924302 v 3.3825849 h -2.97457 V 2.0137568 h 2.82979 v 0.710738 q 0.421177,-0.421178 0.973977,-0.631767 0.55279,-0.210589 1.19772,-0.210589 z" />
  <path
     style="opacity:1;vector-effect:none;fill:#1d7eff;fill-opacity:0.98278186;stroke:none;stroke-width:0.08819444;stroke-linecap:butt;stroke-linejoin:miter;stroke-miterlimit:4;stroke-dasharray:none;stroke-dashoffset:0;stroke-opacity:1;paint-order:fill markers stroke"
     d="m 11.38792,10.850362 h 2.114052 v 2.162394 H 11.38792 Z"
     id="rect1271"
     inkscape:connector-curvature="0" />
  <path
     inkscape:connector-curvature="0"
     id="path1274"
     d="m 14.562919,10.850362 h 2.114052 v 2.162394 h -2.114052 z"
     style="opacity:1;vector-effect:none;fill:#1d7eff;fill-opacity:0.98278186;stroke:none;stroke-width:0.08819444;stroke-linecap:butt;stroke-linejoin:miter;stroke-miterlimit:4;stroke-dasharray:none;stroke-dashoffset:0;stroke-opacity:1;paint-order:fill markers stroke" />
  <path
     style="opacity:1;vector-effect:none;fill:#1d7eff;fill-opacity:0.98278186;stroke:none;stroke-width:0.08819444;stroke-linecap:butt;stroke-linejoin:miter;stroke-miterlimit:4;stroke-dasharray:none;stroke-dashoffset:0;stroke-opacity:1;paint-order:fill markers stroke"
     d="m 17.737918,10.850362 h 2.114052 v 2.162394 h -2.114052 z"
     id="path1276"
     inkscape:connector-curvature="0" />
  <path
     inkscape:connector-curvature="0"
     id="path1278"
     d="m 20.91292,10.850362 h 2.114052 v 2.162394 H 20.91292 Z"
     style="opacity:1;vector-effect:none;fill:#1d7eff;fill-opacity:0.98278186;stroke:none;stroke-width:0.08819444;stroke-linecap:butt;stroke-linejoin:miter;stroke-miterlimit:4;stroke-dasharray:none;stroke-dashoffset:0;stroke-opacity:1;paint-order:fill markers stroke" />
  <path
     style="opacity:1;vector-effect:none;fill:#1d7eff;fill-opacity:0.98278186;stroke:none;stroke-width:0.08819444;stroke-linecap:butt;stroke-linejoin:miter;stroke-miterlimit:4;stroke-dasharray:none;stroke-dashoffset:0;stroke-opacity:1;paint-order:fill markers stroke"
     d="m 24.087919,10.850362 h 2.114052 v 2.162394 h -2.114052 z"
     id="path1280"
     inkscape:connector-curvature="0" />
  <path
     inkscape:connector-curvature="0"
     id="path1318"
     d="m 24.087919,10.850362 h 2.114052 v 2.162394 h -2.114052 z"
     style="opacity:1;vector-effect:none;fill:#1d7eff;fill-opacity:0.98278186;stroke:none;stroke-width:0.08819444;stroke-linecap:butt;stroke-linejoin:miter;stroke-miterlimit:4;stroke-dasharray:none;stroke-dashoffset:0;stroke-opacity:1;paint-order:fill markers stroke" />
</svg>
